CrispyCond Black-MinGrade-shadow.ufo
<glyph name="exclam" format="2">
  <advance width="166"/>
  <unicode hex="0021"/>
  <outline>
    <contour>
      <point x="369" y="63" type="line"/>
      <point x="369" y="283" type="line"/>
      <point x="240" y="283" type="line"/>
      <point x="317" y="360" type="line"/>
      <point x="352" y="431" type="line"/>
      <point x="352" y="1602" type="line"/>
      <point x="79" y="1602" type="line"/>
      <point x="-72" y="1451" type="line"/>
      <point x="-107" y="1377" type="line"/>
      <point x="-107" y="209" type="line"/>
      <point x="59" y="209" type="line"/>
      <point x="59" y="-2" type="line"/>
      <point x="333" y="-2" type="line"/>
    </contour>
    <contour>
      <point x="95" y="283" type="line"/>
      <point x="59" y="217" type="line"/>
      <point x="59" y="213" type="line"/>
      <point x="-103" y="213" type="line"/>
      <point x="-103" y="1377" type="line"/>
      <point x="-68" y="1449" type="line"/>
      <point x="81" y="1598" type="line"/>
      <point x="348" y="1598" type="line"/>
      <point x="348" y="431" type="line"/>
      <point x="313" y="362" type="line"/>
      <point x="234" y="283" type="line"/>
    </contour>
    <contour>
      <point x="63" y="213" type="line"/>
      <point x="63" y="215" type="line"/>
      <point x="97" y="279" type="line"/>
      <point x="230" y="279" type="line"/>
      <point x="164" y="213" type="line"/>
    </contour>
    <contour>
      <point x="166" y="209" type="line"/>
      <point x="236" y="279" type="line"/>
      <point x="365" y="279" type="line"/>
      <point x="365" y="65" type="line"/>
      <point x="331" y="2" type="line"/>
      <point x="63" y="2" type="line"/>
      <point x="63" y="209" type="line"/>
    </contour>
    <component base="period" xOffset="12"/>
    <component base="period" xOffset="12"/>
    <component base="period" xOffset="12"/>
    <component base="period" xOffset="12"/>
  </outline>
</glyph>
<glyph name="comma" format="2">
  <advance width="95"/>
  <unicode hex="002C"/>
  <outline>
    <contour>
      <point x="152" y="-204" type="line"/>
      <point x="240" y="0" type="line"/>
      <point x="240" y="239" type="line"/>
      <point x="-31" y="239" type="line"/>
      <point x="-182" y="88" type="line"/>
      <point x="-217" y="32" type="line"/>
      <point x="-217" y="-152" type="line"/>
      <point x="-47" y="-152" type="line"/>
      <point x="-47" y="-355" type="line"/>
      <point x="1" y="-355" type="line"/>
    </contour>
    <contour>
      <point x="-43" y="-148" type="line"/>
      <point x="-213" y="-148" type="line"/>
      <point x="-213" y="30" type="line"/>
      <point x="-178" y="86" type="line"/>
      <point x="-29" y="235" type="line"/>
      <point x="236" y="235" type="line"/>
      <point x="236" y="0" type="line"/>
      <point x="148" y="-202" type="line"/>
      <point x="-1" y="-351" type="line"/>
      <point x="-43" y="-351" type="line"/>
    </contour>
  </outline>
</glyph>
<glyph name="one" format="2">
  <advance width="359"/>
  <unicode hex="0031"/>
  <outline>
    <contour>
      <point x="527" y="-1" type="line"/>
      <point x="527" y="249" type="line"/>
      <point x="419" y="249" type="line"/>
      <point x="419" y="1602" type="line"/>
      <point x="6" y="1602" type="line"/>
      <point x="-145" y="1451" type="line"/>
      <point x="-145" y="1201" type="line"/>
      <point x="-37" y="1201" type="line"/>
      <point x="-37" y="206" type="line"/>
      <point x="-145" y="98" type="line"/>
      <point x="-145" y="-152" type="line"/>
      <point x="376" y="-152" type="line"/>
    </contour>
    <contour>
      <point x="-33" y="204" type="line"/>
      <point x="-33" y="1205" type="line"/>
      <point x="-141" y="1205" type="line"/>
      <point x="-141" y="1449" type="line"/>
      <point x="8" y="1598" type="line"/>
      <point x="415" y="1598" type="line"/>
      <point x="415" y="245" type="line"/>
      <point x="523" y="245" type="line"/>
      <point x="523" y="1" type="line"/>
      <point x="374" y="-148" type="line"/>
      <point x="-141" y="-148" type="line"/>
      <point x="-141" y="96" type="line"/>
    </contour>
  </outline>
</glyph>
<glyph name="three" format="2">
  <advance width="610"/>
  <unicode hex="0033"/>
  <outline>
    <contour>
      <point x="99" y="911" type="line"/>
      <point x="-52" y="760" type="line"/>
      <point x="-52" y="511" type="line"/>
      <point x="300" y="511" type="line"/>
      <point x="300" y="487" type="line"/>
      <point x="18" y="487" type="line"/>
      <point x="-133" y="336" type="line"/>
      <point x="-133" y="-152" type="line"/>
      <point x="606" y="-152" type="line"/>
      <point x="757" y="-1" type="line"/>
      <point x="757" y="912" type="line"/>
      <point x="749" y="912" type="line"/>
      <point x="749" y="1602" type="line"/>
      <point x="25" y="1602" type="line"/>
      <point x="-126" y="1451" type="line"/>
      <point x="-126" y="937" type="line"/>
      <point x="179" y="937" type="line"/>
      <point x="293" y="1051" type="line"/>
      <point x="293" y="911" type="line"/>
    </contour>
    <contour>
      <point x="297" y="907" type="line"/>
      <point x="297" y="1061" type="line"/>
      <point x="177" y="941" type="line"/>
      <point x="-122" y="941" type="line"/>
      <point x="-122" y="1449" type="line"/>
      <point x="27" y="1598" type="line"/>
      <point x="745" y="1598" type="line"/>
      <point x="745" y="908" type="line"/>
      <point x="753" y="908" type="line"/>
      <point x="753" y="1" type="line"/>
      <point x="604" y="-148" type="line"/>
      <point x="-129" y="-148" type="line"/>
      <point x="-129" y="334" type="line"/>
      <point x="20" y="483" type="line"/>
      <point x="304" y="483" type="line"/>
      <point x="304" y="515" type="line"/>
      <point x="-48" y="515" type="line"/>
      <point x="-48" y="758" type="line"/>
      <point x="101" y="907" type="line"/>
    </contour>
  </outline>
</glyph>
<glyph name="four" format="2">
  <advance width="649"/>
  <unicode hex="0034"/>
  <outline>
    <contour>
      <point x="601" y="-152" type="line"/>
      <point x="752" y="-1" type="line"/>
      <point x="752" y="621" type="line"/>
      <point x="799" y="668" type="line"/>
      <point x="799" y="917" type="line"/>
      <point x="752" y="917" type="line"/>
      <point x="752" y="1602" type="line"/>
      <point x="446" y="1602" type="line"/>
      <point x="327" y="1483" type="line"/>
      <point x="327" y="1602" type="line"/>
      <point x="21" y="1602" type="line"/>
      <point x="-130" y="1451" type="line"/>
      <point x="-130" y="517" type="line"/>
      <point x="295" y="517" type="line"/>
      <point x="295" y="-152" type="line"/>
    </contour>
    <contour>
      <point x="299" y="521" type="line"/>
      <point x="-126" y="521" type="line"/>
      <point x="-126" y="1449" type="line"/>
      <point x="23" y="1598" type="line"/>
      <point x="323" y="1598" type="line"/>
      <point x="323" y="1473" type="line"/>
      <point x="448" y="1598" type="line"/>
      <point x="748" y="1598" type="line"/>
      <point x="748" y="913" type="line"/>
      <point x="795" y="913" type="line"/>
      <point x="795" y="670" type="line"/>
      <point x="748" y="623" type="line"/>
      <point x="748" y="1" type="line"/>
      <point x="599" y="-148" type="line"/>
      <point x="299" y="-148" type="line"/>
    </contour>
  </outline>
</glyph>
<glyph name="five" format="2">
  <advance width="605"/>
  <unicode hex="0035"/>
  <outline>
    <contour>
      <point x="757" y="-1" type="line"/>
      <point x="757" y="941" type="line"/>
      <point x="325" y="941" type="line"/>
      <point x="325" y="1202" type="line"/>
      <point x="606" y="1202" type="line"/>
      <point x="757" y="1353" type="line"/>
      <point x="757" y="1602" type="line"/>
      <point x="19" y="1602" type="line"/>
      <point x="-132" y="1451" type="line"/>
      <point x="-132" y="542" type="line"/>
      <point x="301" y="542" type="line"/>
      <point x="301" y="495" type="line"/>
      <point x="20" y="495" type="line"/>
      <point x="-131" y="344" type="line"/>
      <point x="-131" y="-152" type="line"/>
      <point x="606" y="-152" type="line"/>
    </contour>
    <contour>
      <point x="305" y="491" type="line"/>
      <point x="305" y="546" type="line"/>
      <point x="-128" y="546" type="line"/>
      <point x="-128" y="1449" type="line"/>
      <point x="21" y="1598" type="line"/>
      <point x="753" y="1598" type="line"/>
      <point x="753" y="1355" type="line"/>
      <point x="604" y="1206" type="line"/>
      <point x="321" y="1206" type="line"/>
      <point x="321" y="937" type="line"/>
      <point x="753" y="937" type="line"/>
      <point x="753" y="1" type="line"/>
      <point x="604" y="-148" type="line"/>
      <point x="-127" y="-148" type="line"/>
      <point x="-127" y="342" type="line"/>
      <point x="22" y="491" type="line"/>
    </contour>
  </outline>
</glyph>
<glyph name="eight" format="2">
  <advance width="674"/>
  <unicode hex="0038"/>
  <outline>
    <contour>
      <point x="667" y="-152" type="line"/>
      <point x="818" y="-1" type="line"/>
      <point x="818" y="683" type="line"/>
      <point x="740" y="800" type="line"/>
      <point x="740" y="800" type="line"/>
      <point x="815" y="914" type="line"/>
      <point x="815" y="1602" type="line"/>
      <point x="31" y="1602" type="line"/>
      <point x="-120" y="1451" type="line"/>
      <point x="-120" y="764" type="line"/>
      <point x="-44" y="650" type="line"/>
      <point x="-44" y="650" type="line"/>
      <point x="-123" y="533" type="line"/>
      <point x="-123" y="-152" type="line"/>
    </contour>
    <contour>
      <point x="-40" y="648" type="line"/>
      <point x="-40" y="652" type="line"/>
      <point x="-116" y="766" type="line"/>
      <point x="-116" y="1449" type="line"/>
      <point x="33" y="1598" type="line"/>
      <point x="811" y="1598" type="line"/>
      <point x="811" y="916" type="line"/>
      <point x="736" y="802" type="line"/>
      <point x="736" y="798" type="line"/>
      <point x="814" y="681" type="line"/>
      <point x="814" y="1" type="line"/>
      <point x="665" y="-148" type="line"/>
      <point x="-119" y="-148" type="line"/>
      <point x="-119" y="531" type="line"/>
    </contour>
    <contour>
      <point x="362" y="942" type="line"/>
      <point x="362" y="1206" type="line"/>
      <point x="333" y="1206" type="line"/>
      <point x="333" y="979" type="line"/>
    </contour>
    <contour>
      <point x="337" y="981" type="line"/>
      <point x="337" y="1202" type="line"/>
      <point x="358" y="1202" type="line"/>
      <point x="358" y="954" type="line"/>
    </contour>
    <contour>
      <point x="366" y="244" type="line"/>
      <point x="366" y="468" type="line"/>
      <point x="329" y="513" type="line"/>
      <point x="329" y="244" type="line"/>
    </contour>
    <contour>
      <point x="333" y="248" type="line"/>
      <point x="333" y="501" type="line"/>
      <point x="362" y="466" type="line"/>
      <point x="362" y="248" type="line"/>
    </contour>
  </outline>
</glyph>
<glyph name="nine" format="2">
  <advance width="653"/>
  <unicode hex="0039"/>
  <outline>
    <contour>
      <point x="804" y="-1" type="line"/>
      <point x="804" y="1602" type="line"/>
      <point x="28" y="1602" type="line"/>
      <point x="-123" y="1451" type="line"/>
      <point x="-123" y="551" type="line"/>
      <point x="347" y="551" type="line"/>
      <point x="347" y="248" type="line"/>
      <point x="334" y="248" type="line"/>
      <point x="334" y="484" type="line"/>
      <point x="28" y="484" type="line"/>
      <point x="-123" y="333" type="line"/>
      <point x="-123" y="-152" type="line"/>
      <point x="653" y="-152" type="line"/>
    </contour>
    <contour>
      <point x="330" y="244" type="line"/>
      <point x="351" y="244" type="line"/>
      <point x="351" y="555" type="line"/>
      <point x="-119" y="555" type="line"/>
      <point x="-119" y="1449" type="line"/>
      <point x="30" y="1598" type="line"/>
      <point x="800" y="1598" type="line"/>
      <point x="800" y="1" type="line"/>
      <point x="651" y="-148" type="line"/>
      <point x="-119" y="-148" type="line"/>
      <point x="-119" y="331" type="line"/>
      <point x="30" y="480" type="line"/>
      <point x="330" y="480" type="line"/>
    </contour>
    <contour>
      <point x="351" y="947" type="line"/>
      <point x="351" y="1206" type="line"/>
      <point x="329" y="1206" type="line"/>
      <point x="329" y="947" type="line"/>
    </contour>
    <contour>
      <point x="333" y="951" type="line"/>
      <point x="333" y="1202" type="line"/>
      <point x="347" y="1202" type="line"/>
      <point x="347" y="951" type="line"/>
    </contour>
  </outline>
</glyph>
<glyph name="D" format="2">
  <advance width="638"/>
  <unicode hex="0044"/>
  <outline>
    <contour>
      <point x="785" y="355" type="line"/>
      <point x="785" y="1602" type="line"/>
      <point x="37" y="1602" type="line"/>
      <point x="-114" y="1451" type="line"/>
      <point x="-114" y="-152" type="line"/>
      <point x="545" y="-152" type="line"/>
      <point x="696" y="-1" type="line"/>
    </contour>
    <contour>
      <point x="-110" y="-148" type="line"/>
      <point x="-110" y="1449" type="line"/>
      <point x="39" y="1598" type="line"/>
      <point x="781" y="1598" type="line"/>
      <point x="781" y="355" type="line"/>
      <point x="692" y="1" type="line"/>
      <point x="543" y="-148" type="line"/>
    </contour>
  </outline>
</glyph>
<glyph name="F" format="2">
  <advance width="605"/>
  <unicode hex="0046"/>
  <outline>
    <contour>
      <point x="194" y="-152" type="line"/>
      <point x="345" y="-1" type="line"/>
      <point x="345" y="486" type="line"/>
      <point x="520" y="486" type="line"/>
      <point x="671" y="637" type="line"/>
      <point x="671" y="887" type="line"/>
      <point x="345" y="887" type="line"/>
      <point x="345" y="921" type="line"/>
      <point x="608" y="921" type="line"/>
      <point x="759" y="1072" type="line"/>
      <point x="759" y="1602" type="line"/>
      <point x="39" y="1602" type="line"/>
      <point x="-112" y="1451" type="line"/>
      <point x="-112" y="-152" type="line"/>
    </contour>
    <contour>
      <point x="341" y="925" type="line"/>
      <point x="341" y="883" type="line"/>
      <point x="667" y="883" type="line"/>
      <point x="667" y="639" type="line"/>
      <point x="518" y="490" type="line"/>
      <point x="341" y="490" type="line"/>
      <point x="341" y="1" type="line"/>
      <point x="192" y="-148" type="line"/>
      <point x="-108" y="-148" type="line"/>
      <point x="-108" y="1449" type="line"/>
      <point x="41" y="1598" type="line"/>
      <point x="755" y="1598" type="line"/>
      <point x="755" y="1074" type="line"/>
      <point x="606" y="925" type="line"/>
    </contour>
  </outline>
</glyph>
<glyph name="G" format="2">
  <advance width="624"/>
  <unicode hex="0047"/>
  <outline>
    <contour>
      <point x="625" y="-152" type="line"/>
      <point x="776" y="-1" type="line"/>
      <point x="776" y="884" type="line"/>
      <point x="411" y="884" type="line"/>
      <point x="332" y="805" type="line"/>
      <point x="332" y="899" type="line"/>
      <point x="622" y="899" type="line"/>
      <point x="773" y="1050" type="line"/>
      <point x="773" y="1602" type="line"/>
      <point x="118" y="1602" type="line"/>
      <point x="-33" y="1451" type="line"/>
      <point x="-124" y="1091" type="line"/>
      <point x="-124" y="-152" type="line"/>
    </contour>
    <contour>
      <point x="328" y="903" type="line"/>
      <point x="328" y="795" type="line"/>
      <point x="413" y="880" type="line"/>
      <point x="772" y="880" type="line"/>
      <point x="772" y="1" type="line"/>
      <point x="623" y="-148" type="line"/>
      <point x="-120" y="-148" type="line"/>
      <point x="-120" y="1091" type="line"/>
      <point x="-29" y="1449" type="line"/>
      <point x="120" y="1598" type="line"/>
      <point x="769" y="1598" type="line"/>
      <point x="769" y="1052" type="line"/>
      <point x="620" y="903" type="line"/>
    </contour>
  </outline>
</glyph>
<glyph name="M" format="2">
  <advance width="1096"/>
  <unicode hex="004D"/>
  <outline>
    <contour>
      <point x="1063" y="-152" type="line"/>
      <point x="1217" y="2" type="line"/>
      <point x="1064" y="2" type="line"/>
      <point x="1064" y="1452" type="line"/>
      <point x="690" y="1452" type="line"/>
      <point x="697" y="1605" type="line"/>
      <point x="543" y="1451" type="line"/>
      <point x="490" y="229" type="line"/>
      <point x="477" y="216" type="line"/>
      <point x="422" y="1452" type="line"/>
      <point x="56" y="1452" type="line"/>
      <point x="56" y="1605" type="line"/>
      <point x="-98" y="1451" type="line"/>
      <point x="-98" y="-152" type="line"/>
      <point x="174" y="-152" type="line"/>
      <point x="308" y="-18" type="line"/>
      <point x="702" y="-18" type="line"/>
      <point x="791" y="71" type="line"/>
      <point x="791" y="-152" type="line"/>
    </contour>
    <contour>
      <point x="494" y="233" type="line"/>
      <point x="494" y="233" type="line"/>
      <point x="547" y="1449" type="line"/>
      <point x="693" y="1595" type="line"/>
      <point x="686" y="1448" type="line"/>
      <point x="1060" y="1448" type="line"/>
      <point x="1060" y="-2" type="line"/>
      <point x="1207" y="-2" type="line"/>
      <point x="1061" y="-148" type="line"/>
      <point x="795" y="-148" type="line"/>
      <point x="795" y="81" type="line"/>
      <point x="700" y="-14" type="line"/>
      <point x="306" y="-14" type="line"/>
      <point x="172" y="-148" type="line"/>
      <point x="-94" y="-148" type="line"/>
      <point x="-94" y="1449" type="line"/>
      <point x="52" y="1595" type="line"/>
      <point x="52" y="1448" type="line"/>
      <point x="418" y="1448" type="line"/>
      <point x="473" y="212" type="line"/>
      <point x="470" y="209" type="line"/>
      <point x="473" y="209" type="line"/>
      <point x="473" y="206" type="line"/>
      <point x="476" y="209" type="line"/>
      <point x="493" y="209" type="line"/>
      <point x="494" y="227" type="line"/>
      <point x="494" y="227" type="line"/>
      <point x="494" y="228" type="line"/>
    </contour>
    <contour>
      <point x="706" y="132" type="line"/>
      <point x="795" y="132" type="line"/>
      <point x="795" y="1205" type="line"/>
      <point x="758" y="1205" type="line"/>
    </contour>
    <contour>
      <point x="171" y="-2" type="line"/>
      <point x="265" y="-2" type="line"/>
      <point x="208" y="1205" type="line"/>
      <point x="171" y="1205" type="line"/>
    </contour>
    <contour>
      <point x="710" y="136" type="line"/>
      <point x="762" y="1201" type="line"/>
      <point x="791" y="1201" type="line"/>
      <point x="791" y="136" type="line"/>
    </contour>
    <contour>
      <point x="175" y="2" type="line"/>
      <point x="175" y="1201" type="line"/>
      <point x="204" y="1201" type="line"/>
      <point x="261" y="2" type="line"/>
    </contour>
    <contour>
      <point x="480" y="213" type="line"/>
      <point x="490" y="223" type="line"/>
      <point x="489" y="213" type="line"/>
    </contour>
  </outline>
</glyph>
<glyph name="O" format="2">
  <advance width="627"/>
  <unicode hex="004F"/>
  <outline>
    <contour>
      <point x="775" y="356" type="line"/>
      <point x="775" y="1602" type="line"/>
      <point x="114" y="1602" type="line"/>
      <point x="-37" y="1451" type="line"/>
      <point x="-126" y="1090" type="line"/>
      <point x="-126" y="-152" type="line"/>
      <point x="534" y="-152" type="line"/>
      <point x="685" y="-1" type="line"/>
    </contour>
    <contour>
      <point x="-122" y="-148" type="line"/>
      <point x="-122" y="1090" type="line"/>
      <point x="-33" y="1449" type="line"/>
      <point x="116" y="1598" type="line"/>
      <point x="771" y="1598" type="line"/>
      <point x="771" y="356" type="line"/>
      <point x="681" y="1" type="line"/>
      <point x="532" y="-148" type="line"/>
    </contour>
  </outline>
</glyph>
<glyph name="R" format="2">
  <advance width="646"/>
  <unicode hex="0052"/>
  <outline>
    <contour>
      <point x="636" y="-152" type="line"/>
      <point x="787" y="-1" type="line"/>
      <point x="787" y="402" type="line"/>
      <point x="722" y="532" type="line"/>
      <point x="784" y="593" type="line"/>
      <point x="784" y="1602" type="line"/>
      <point x="41" y="1602" type="line"/>
      <point x="-110" y="1451" type="line"/>
      <point x="-110" y="-152" type="line"/>
      <point x="196" y="-152" type="line"/>
      <point x="330" y="-18" type="line"/>
      <point x="330" y="-152" type="line"/>
    </contour>
    <contour>
      <point x="718" y="532" type="line"/>
      <point x="783" y="402" type="line"/>
      <point x="783" y="1" type="line"/>
      <point x="634" y="-148" type="line"/>
      <point x="334" y="-148" type="line"/>
      <point x="334" y="-8" type="line"/>
      <point x="194" y="-148" type="line"/>
      <point x="-106" y="-148" type="line"/>
      <point x="-106" y="1449" type="line"/>
      <point x="43" y="1598" type="line"/>
      <point x="780" y="1598" type="line"/>
      <point x="780" y="595" type="line"/>
    </contour>
  </outline>
</glyph>
<glyph name="S" format="2">
  <advance width="595"/>
  <unicode hex="0053"/>
  <outline>
    <contour>
      <point x="507" y="-152" type="line"/>
      <point x="658" y="-1" type="line"/>
      <point x="747" y="347" type="line"/>
      <point x="747" y="941" type="line"/>
      <point x="615" y="941" type="line"/>
      <point x="741" y="1067" type="line"/>
      <point x="741" y="1602" type="line"/>
      <point x="115" y="1602" type="line"/>
      <point x="-36" y="1451" type="line"/>
      <point x="-130" y="1081" type="line"/>
      <point x="-130" y="528" type="line"/>
      <point x="7" y="528" type="line"/>
      <point x="-131" y="390" type="line"/>
      <point x="-131" y="-152" type="line"/>
    </contour>
    <contour>
      <point x="17" y="532" type="line"/>
      <point x="-126" y="532" type="line"/>
      <point x="-126" y="1081" type="line"/>
      <point x="-32" y="1449" type="line"/>
      <point x="117" y="1598" type="line"/>
      <point x="737" y="1598" type="line"/>
      <point x="737" y="1069" type="line"/>
      <point x="605" y="937" type="line"/>
      <point x="743" y="937" type="line"/>
      <point x="743" y="347" type="line"/>
      <point x="654" y="1" type="line"/>
      <point x="505" y="-148" type="line"/>
      <point x="-127" y="-148" type="line"/>
      <point x="-127" y="388" type="line"/>
    </contour>
  </outline>
</glyph>
<glyph name="T" format="2">
  <advance width="506"/>
  <unicode hex="0054"/>
  <outline>
    <contour>
      <point x="341" y="-152" type="line"/>
      <point x="492" y="-1" type="line"/>
      <point x="492" y="1201" type="line"/>
      <point x="515" y="1201" type="line"/>
      <point x="666" y="1352" type="line"/>
      <point x="666" y="1602" type="line"/>
      <point x="12" y="1602" type="line"/>
      <point x="-139" y="1451" type="line"/>
      <point x="-139" y="1201" type="line"/>
      <point x="35" y="1201" type="line"/>
      <point x="35" y="-152" type="line"/>
    </contour>
    <contour>
      <point x="39" y="1205" type="line"/>
      <point x="-135" y="1205" type="line"/>
      <point x="-135" y="1449" type="line"/>
      <point x="14" y="1598" type="line"/>
      <point x="662" y="1598" type="line"/>
      <point x="662" y="1354" type="line"/>
      <point x="513" y="1205" type="line"/>
      <point x="488" y="1205" type="line"/>
      <point x="488" y="1" type="line"/>
      <point x="339" y="-148" type="line"/>
      <point x="39" y="-148" type="line"/>
    </contour>
  </outline>
</glyph>
<glyph name="U" format="2">
  <advance width="640"/>
  <unicode hex="0055"/>
  <outline>
    <contour>
      <point x="621" y="-152" type="line"/>
      <point x="772" y="-1" type="line"/>
      <point x="772" y="1602" type="line"/>
      <point x="466" y="1602" type="line"/>
      <point x="332" y="1468" type="line"/>
      <point x="332" y="1602" type="line"/>
      <point x="27" y="1602" type="line"/>
      <point x="-124" y="1451" type="line"/>
      <point x="-124" y="-152" type="line"/>
    </contour>
    <contour>
      <point x="328" y="1458" type="line"/>
      <point x="468" y="1598" type="line"/>
      <point x="768" y="1598" type="line"/>
      <point x="768" y="1" type="line"/>
      <point x="619" y="-148" type="line"/>
      <point x="-120" y="-148" type="line"/>
      <point x="-120" y="1449" type="line"/>
      <point x="29" y="1598" type="line"/>
      <point x="328" y="1598" type="line"/>
    </contour>
  </outline>
</glyph>
<glyph name="V" format="2">
  <advance width="637"/>
  <unicode hex="0056"/>
  <outline>
    <contour>
      <point x="542" y="-152" type="line"/>
      <point x="696" y="2" type="line"/>
      <point x="582" y="2" type="line"/>
      <point x="633" y="207" type="line"/>
      <point x="633" y="1452" type="line"/>
      <point x="480" y="1452" type="line"/>
      <point x="480" y="1605" type="line"/>
      <point x="326" y="1451" type="line"/>
      <point x="326" y="233" type="line"/>
      <point x="195" y="102" type="line"/>
      <point x="195" y="1452" type="line"/>
      <point x="42" y="1452" type="line"/>
      <point x="42" y="1605" type="line"/>
      <point x="-112" y="1451" type="line"/>
      <point x="-112" y="-152" type="line"/>
    </contour>
    <contour>
      <point x="188" y="95" type="line"/>
      <point x="191" y="95" type="line"/>
      <point x="191" y="92" type="line"/>
      <point x="194" y="95" type="line"/>
      <point x="293" y="95" type="line"/>
      <point x="330" y="219" type="line"/>
      <point x="330" y="1449" type="line"/>
      <point x="476" y="1595" type="line"/>
      <point x="476" y="1448" type="line"/>
      <point x="629" y="1448" type="line"/>
      <point x="629" y="207" type="line"/>
      <point x="576" y="-2" type="line"/>
      <point x="686" y="-2" type="line"/>
      <point x="540" y="-148" type="line"/>
      <point x="-108" y="-148" type="line"/>
      <point x="-108" y="1449" type="line"/>
      <point x="38" y="1595" type="line"/>
      <point x="38" y="1448" type="line"/>
      <point x="191" y="1448" type="line"/>
      <point x="191" y="98" type="line"/>
    </contour>
    <contour>
      <point x="198" y="99" type="line"/>
      <point x="326" y="227" type="line"/>
      <point x="326" y="219" type="line"/>
      <point x="291" y="99" type="line"/>
    </contour>
  </outline>
</glyph>
<glyph name="Y" format="2">
  <advance width="652"/>
  <unicode hex="0059"/>
  <outline>
    <contour>
      <point x="-109" y="375" type="line"/>
      <point x="-109" y="-152" type="line"/>
      <point x="634" y="-152" type="line"/>
      <point x="785" y="-1" type="line"/>
      <point x="785" y="1602" type="line"/>
      <point x="479" y="1602" type="line"/>
      <point x="344" y="1467" type="line"/>
      <point x="344" y="1602" type="line"/>
      <point x="39" y="1602" type="line"/>
      <point x="-112" y="1451" type="line"/>
      <point x="-112" y="526" type="line"/>
      <point x="42" y="526" type="line"/>
    </contour>
    <contour>
      <point x="340" y="1457" type="line"/>
      <point x="481" y="1598" type="line"/>
      <point x="781" y="1598" type="line"/>
      <point x="781" y="1" type="line"/>
      <point x="632" y="-148" type="line"/>
      <point x="-105" y="-148" type="line"/>
      <point x="-105" y="373" type="line"/>
      <point x="44" y="522" type="line"/>
      <point x="332" y="522" type="line"/>
      <point x="332" y="530" type="line"/>
      <point x="-108" y="530" type="line"/>
      <point x="-108" y="1449" type="line"/>
      <point x="41" y="1598" type="line"/>
      <point x="340" y="1598" type="line"/>
    </contour>
  </outline>
</glyph>
<glyph name="F.wide" format="2">
  <advance width="565"/>
  <outline>
    <contour>
      <point x="191" y="-152" type="line"/>
      <point x="342" y="-1" type="line"/>
      <point x="342" y="388" type="line"/>
      <point x="522" y="388" type="line"/>
      <point x="673" y="539" type="line"/>
      <point x="673" y="788" type="line"/>
      <point x="342" y="788" type="line"/>
      <point x="342" y="1201" type="line"/>
      <point x="570" y="1201" type="line"/>
      <point x="721" y="1352" type="line"/>
      <point x="721" y="1602" type="line"/>
      <point x="36" y="1602" type="line"/>
      <point x="-115" y="1451" type="line"/>
      <point x="-115" y="-152" type="line"/>
    </contour>
    <contour>
      <point x="338" y="1205" type="line"/>
      <point x="338" y="784" type="line"/>
      <point x="669" y="784" type="line"/>
      <point x="669" y="541" type="line"/>
      <point x="520" y="392" type="line"/>
      <point x="338" y="392" type="line"/>
      <point x="338" y="1" type="line"/>
      <point x="189" y="-148" type="line"/>
      <point x="-111" y="-148" type="line"/>
      <point x="-111" y="1449" type="line"/>
      <point x="38" y="1598" type="line"/>
      <point x="717" y="1598" type="line"/>
      <point x="717" y="1354" type="line"/>
      <point x="568" y="1205" type="line"/>
    </contour>
  </outline>
</glyph>
<glyph name="G.wide" format="2">
  <advance width="679"/>
  <outline>
    <contour>
      <point x="654" y="-152" type="line"/>
      <point x="805" y="-1" type="line"/>
      <point x="805" y="865" type="line"/>
      <point x="418" y="865" type="line"/>
      <point x="336" y="783" type="line"/>
      <point x="336" y="1139" type="line"/>
      <point x="347" y="1202" type="line"/>
      <point x="654" y="1202" type="line"/>
      <point x="805" y="1353" type="line"/>
      <point x="805" y="1602" type="line"/>
      <point x="101" y="1602" type="line"/>
      <point x="-50" y="1451" type="line"/>
      <point x="-120" y="999" type="line"/>
      <point x="-120" y="-152" type="line"/>
    </contour>
    <contour>
      <point x="343" y="1206" type="line"/>
      <point x="332" y="1139" type="line"/>
      <point x="332" y="773" type="line"/>
      <point x="420" y="861" type="line"/>
      <point x="801" y="861" type="line"/>
      <point x="801" y="1" type="line"/>
      <point x="652" y="-148" type="line"/>
      <point x="-116" y="-148" type="line"/>
      <point x="-116" y="999" type="line"/>
      <point x="-46" y="1449" type="line"/>
      <point x="103" y="1598" type="line"/>
      <point x="801" y="1598" type="line"/>
      <point x="801" y="1355" type="line"/>
      <point x="652" y="1206" type="line"/>
    </contour>
    <contour>
      <point x="355" y="244" type="line"/>
      <point x="355" y="515" type="line"/>
      <point x="332" y="515" type="line"/>
      <point x="332" y="244" type="line"/>
    </contour>
    <contour>
      <point x="336" y="248" type="line"/>
      <point x="336" y="511" type="line"/>
      <point x="351" y="511" type="line"/>
      <point x="351" y="248" type="line"/>
    </contour>
  </outline>
</glyph>
<glyph name="I.narrow" format="2">
  <advance width="243"/>
  <outline>
    <contour>
      <point x="-97" y="1451" type="line"/>
      <point x="-97" y="-152" type="line"/>
      <point x="209" y="-152" type="line"/>
      <point x="360" y="-1" type="line"/>
      <point x="360" y="1602" type="line"/>
      <point x="54" y="1602" type="line"/>
    </contour>
    <contour>
      <point x="-93" y="-148" type="line"/>
      <point x="-93" y="1449" type="line"/>
      <point x="56" y="1598" type="line"/>
      <point x="356" y="1598" type="line"/>
      <point x="356" y="1" type="line"/>
      <point x="207" y="-148" type="line"/>
    </contour>
  </outline>
</glyph>
<glyph name="L.wide" format="2">
  <advance width="560"/>
  <outline>
    <contour>
      <point x="711" y="-1" type="line"/>
      <point x="711" y="249" type="line"/>
      <point x="351" y="249" type="line"/>
      <point x="351" y="1602" type="line"/>
      <point x="46" y="1602" type="line"/>
      <point x="-105" y="1451" type="line"/>
      <point x="-105" y="-152" type="line"/>
      <point x="560" y="-152" type="line"/>
    </contour>
    <contour>
      <point x="347" y="245" type="line"/>
      <point x="707" y="245" type="line"/>
      <point x="707" y="1" type="line"/>
      <point x="558" y="-148" type="line"/>
      <point x="-101" y="-148" type="line"/>
      <point x="-101" y="1449" type="line"/>
      <point x="48" y="1598" type="line"/>
      <point x="347" y="1598" type="line"/>
    </contour>
  </outline>
</glyph>
<glyph name="N.wide" format="2">
  <advance width="900"/>
  <outline>
    <contour>
      <point x="209" y="-152" type="line"/>
      <point x="360" y="-1" type="line"/>
      <point x="360" y="588" type="line"/>
      <point x="549" y="-152" type="line"/>
      <point x="867" y="-152" type="line"/>
      <point x="1018" y="-1" type="line"/>
      <point x="1018" y="1602" type="line"/>
      <point x="712" y="1602" type="line"/>
      <point x="561" y="1451" type="line"/>
      <point x="561" y="911" type="line"/>
      <point x="389" y="1602" type="line"/>
      <point x="54" y="1602" type="line"/>
      <point x="-97" y="1451" type="line"/>
      <point x="-97" y="-152" type="line"/>
    </contour>
    <contour>
      <point x="357" y="614" type="line"/>
      <point x="356" y="614" type="line"/>
      <point x="356" y="1" type="line"/>
      <point x="207" y="-148" type="line"/>
      <point x="-93" y="-148" type="line"/>
      <point x="-93" y="1449" type="line"/>
      <point x="56" y="1598" type="line"/>
      <point x="385" y="1598" type="line"/>
      <point x="563" y="885" type="line"/>
      <point x="565" y="885" type="line"/>
      <point x="565" y="1449" type="line"/>
      <point x="714" y="1598" type="line"/>
      <point x="1014" y="1598" type="line"/>
      <point x="1014" y="1" type="line"/>
      <point x="865" y="-148" type="line"/>
      <point x="553" y="-148" type="line"/>
    </contour>
  </outline>
</glyph>
<glyph name="P.wide" format="2">
  <advance width="657"/>
  <outline>
    <contour>
      <point x="193" y="-152" type="line"/>
      <point x="344" y="-1" type="line"/>
      <point x="344" y="445" type="line"/>
      <point x="656" y="445" type="line"/>
      <point x="807" y="596" type="line"/>
      <point x="807" y="1602" type="line"/>
      <point x="39" y="1602" type="line"/>
      <point x="-112" y="1451" type="line"/>
      <point x="-112" y="-152" type="line"/>
    </contour>
    <contour>
      <point x="340" y="449" type="line"/>
      <point x="340" y="1" type="line"/>
      <point x="191" y="-148" type="line"/>
      <point x="-108" y="-148" type="line"/>
      <point x="-108" y="1449" type="line"/>
      <point x="41" y="1598" type="line"/>
      <point x="803" y="1598" type="line"/>
      <point x="803" y="598" type="line"/>
      <point x="654" y="449" type="line"/>
    </contour>
    <contour>
      <point x="354" y="849" type="line"/>
      <point x="354" y="1205" type="line"/>
      <point x="340" y="1205" type="line"/>
      <point x="340" y="849" type="line"/>
    </contour>
    <contour>
      <point x="344" y="853" type="line"/>
      <point x="344" y="1201" type="line"/>
      <point x="350" y="1201" type="line"/>
      <point x="350" y="853" type="line"/>
    </contour>
  </outline>
</glyph>
<glyph name="R.wide" format="2">
  <advance width="639"/>
  <outline>
    <contour>
      <point x="634" y="-152" type="line"/>
      <point x="785" y="-1" type="line"/>
      <point x="699" y="510" type="line"/>
      <point x="782" y="593" type="line"/>
      <point x="782" y="1602" type="line"/>
      <point x="39" y="1602" type="line"/>
      <point x="-112" y="1451" type="line"/>
      <point x="-112" y="-152" type="line"/>
      <point x="194" y="-152" type="line"/>
      <point x="313" y="-33" type="line"/>
      <point x="328" y="-152" type="line"/>
    </contour>
    <contour>
      <point x="695" y="512" type="line"/>
      <point x="781" y="1" type="line"/>
      <point x="632" y="-148" type="line"/>
      <point x="332" y="-148" type="line"/>
      <point x="315" y="-25" type="line"/>
      <point x="192" y="-148" type="line"/>
      <point x="-108" y="-148" type="line"/>
      <point x="-108" y="1449" type="line"/>
      <point x="41" y="1598" type="line"/>
      <point x="778" y="1598" type="line"/>
      <point x="778" y="595" type="line"/>
    </contour>
  </outline>
</glyph>
<glyph name="Z.wide" format="2">
  <advance width="654"/>
  <outline>
    <contour>
      <point x="797" y="-1" type="line"/>
      <point x="797" y="248" type="line"/>
      <point x="328" y="248" type="line"/>
      <point x="328" y="424" type="line"/>
      <point x="801" y="1327" type="line"/>
      <point x="801" y="1602" type="line"/>
      <point x="25" y="1602" type="line"/>
      <point x="-126" y="1451" type="line"/>
      <point x="-126" y="1202" type="line"/>
      <point x="341" y="1202" type="line"/>
      <point x="341" y="1171" type="line"/>
      <point x="-129" y="280" type="line"/>
      <point x="-129" y="-152" type="line"/>
      <point x="646" y="-152" type="line"/>
    </contour>
    <contour>
      <point x="324" y="424" type="line"/>
      <point x="324" y="244" type="line"/>
      <point x="793" y="244" type="line"/>
      <point x="793" y="1" type="line"/>
      <point x="644" y="-148" type="line"/>
      <point x="-125" y="-148" type="line"/>
      <point x="-125" y="280" type="line"/>
      <point x="345" y="1171" type="line"/>
      <point x="345" y="1206" type="line"/>
      <point x="-122" y="1206" type="line"/>
      <point x="-122" y="1449" type="line"/>
      <point x="27" y="1598" type="line"/>
      <point x="797" y="1598" type="line"/>
      <point x="797" y="1327" type="line"/>
    </contour>
  </outline>
</glyph>
<glyph name="five.wide" format="2">
  <advance width="617"/>
  <outline>
    <contour>
      <point x="769" y="-1" type="line"/>
      <point x="769" y="924" type="line"/>
      <point x="326" y="924" type="line"/>
      <point x="326" y="1202" type="line"/>
      <point x="618" y="1202" type="line"/>
      <point x="769" y="1353" type="line"/>
      <point x="769" y="1602" type="line"/>
      <point x="20" y="1602" type="line"/>
      <point x="-131" y="1451" type="line"/>
      <point x="-131" y="524" type="line"/>
      <point x="312" y="524" type="line"/>
      <point x="312" y="248" type="line"/>
      <point x="21" y="248" type="line"/>
      <point x="-130" y="97" type="line"/>
      <point x="-130" y="-152" type="line"/>
      <point x="618" y="-152" type="line"/>
    </contour>
    <contour>
      <point x="316" y="244" type="line"/>
      <point x="316" y="528" type="line"/>
      <point x="-127" y="528" type="line"/>
      <point x="-127" y="1449" type="line"/>
      <point x="22" y="1598" type="line"/>
      <point x="765" y="1598" type="line"/>
      <point x="765" y="1355" type="line"/>
      <point x="616" y="1206" type="line"/>
      <point x="322" y="1206" type="line"/>
      <point x="322" y="920" type="line"/>
      <point x="765" y="920" type="line"/>
      <point x="765" y="1" type="line"/>
      <point x="616" y="-148" type="line"/>
      <point x="-126" y="-148" type="line"/>
      <point x="-126" y="95" type="line"/>
      <point x="23" y="244" type="line"/>
    </contour>
  </outline>
</glyph>
<glyph name="one.narrow" format="2">
  <advance width="335"/>
  <outline>
    <contour>
      <point x="466" y="1602" type="line"/>
      <point x="20" y="1602" type="line"/>
      <point x="-131" y="1451" type="line"/>
      <point x="-131" y="1201" type="line"/>
      <point x="9" y="1201" type="line"/>
      <point x="9" y="-152" type="line"/>
      <point x="315" y="-152" type="line"/>
      <point x="466" y="-1" type="line"/>
    </contour>
    <contour>
      <point x="13" y="1205" type="line"/>
      <point x="-127" y="1205" type="line"/>
      <point x="-127" y="1449" type="line"/>
      <point x="22" y="1598" type="line"/>
      <point x="462" y="1598" type="line"/>
      <point x="462" y="1" type="line"/>
      <point x="313" y="-148" type="line"/>
      <point x="13" y="-148" type="line"/>
    </contour>
  </outline>
</glyph>
<glyph name="six.wide" format="2">
  <advance width="707"/>
  <outline>
    <contour>
      <point x="675" y="-152" type="line"/>
      <point x="826" y="-1" type="line"/>
      <point x="826" y="873" type="line"/>
      <point x="355" y="873" type="line"/>
      <point x="355" y="1202" type="line"/>
      <point x="674" y="1202" type="line"/>
      <point x="825" y="1353" type="line"/>
      <point x="825" y="1602" type="line"/>
      <point x="100" y="1602" type="line"/>
      <point x="-51" y="1451" type="line"/>
      <point x="-101" y="1078" type="line"/>
      <point x="-101" y="-152" type="line"/>
    </contour>
    <contour>
      <point x="351" y="1206" type="line"/>
      <point x="351" y="869" type="line"/>
      <point x="822" y="869" type="line"/>
      <point x="822" y="1" type="line"/>
      <point x="673" y="-148" type="line"/>
      <point x="-97" y="-148" type="line"/>
      <point x="-97" y="1078" type="line"/>
      <point x="-47" y="1449" type="line"/>
      <point x="102" y="1598" type="line"/>
      <point x="821" y="1598" type="line"/>
      <point x="821" y="1355" type="line"/>
      <point x="672" y="1206" type="line"/>
    </contour>
    <contour>
      <point x="373" y="244" type="line"/>
      <point x="373" y="519" type="line"/>
      <point x="351" y="519" type="line"/>
      <point x="351" y="244" type="line"/>
    </contour>
    <contour>
      <point x="355" y="248" type="line"/>
      <point x="355" y="515" type="line"/>
      <point x="369" y="515" type="line"/>
      <point x="369" y="248" type="line"/>
    </contour>
  </outline>
</glyph>
<glyph name="three.wide" format="2">
  <advance width="686"/>
  <outline>
    <contour>
      <point x="816" y="-1" type="line"/>
      <point x="816" y="912" type="line"/>
      <point x="767" y="912" type="line"/>
      <point x="767" y="1602" type="line"/>
      <point x="24" y="1602" type="line"/>
      <point x="-127" y="1451" type="line"/>
      <point x="-127" y="1202" type="line"/>
      <point x="310" y="1202" type="line"/>
      <point x="310" y="914" type="line"/>
      <point x="99" y="914" type="line"/>
      <point x="-52" y="763" type="line"/>
      <point x="-52" y="514" type="line"/>
      <point x="360" y="514" type="line"/>
      <point x="360" y="248" type="line"/>
      <point x="40" y="248" type="line"/>
      <point x="-111" y="97" type="line"/>
      <point x="-111" y="-152" type="line"/>
      <point x="665" y="-152" type="line"/>
    </contour>
    <contour>
      <point x="763" y="908" type="line"/>
      <point x="812" y="908" type="line"/>
      <point x="812" y="1" type="line"/>
      <point x="663" y="-148" type="line"/>
      <point x="-107" y="-148" type="line"/>
      <point x="-107" y="95" type="line"/>
      <point x="42" y="244" type="line"/>
      <point x="364" y="244" type="line"/>
      <point x="364" y="518" type="line"/>
      <point x="-48" y="518" type="line"/>
      <point x="-48" y="761" type="line"/>
      <point x="101" y="910" type="line"/>
      <point x="314" y="910" type="line"/>
      <point x="314" y="1206" type="line"/>
      <point x="-123" y="1206" type="line"/>
      <point x="-123" y="1449" type="line"/>
      <point x="26" y="1598" type="line"/>
      <point x="763" y="1598" type="line"/>
    </contour>
  </outline>
</glyph>
<glyph name="two.wide" format="2">
  <advance width="635"/>
  <outline>
    <contour>
      <point x="780" y="1602" type="line"/>
      <point x="25" y="1602" type="line"/>
      <point x="-126" y="1451" type="line"/>
      <point x="-126" y="1202" type="line"/>
      <point x="324" y="1202" type="line"/>
      <point x="324" y="916" type="line"/>
      <point x="20" y="916" type="line"/>
      <point x="-131" y="765" type="line"/>
      <point x="-131" y="-152" type="line"/>
      <point x="628" y="-152" type="line"/>
      <point x="779" y="-1" type="line"/>
      <point x="778" y="248" type="line"/>
      <point x="326" y="248" type="line"/>
      <point x="326" y="516" type="line"/>
      <point x="629" y="516" type="line"/>
      <point x="780" y="667" type="line"/>
    </contour>
    <contour>
      <point x="322" y="520" type="line"/>
      <point x="322" y="244" type="line"/>
      <point x="774" y="244" type="line"/>
      <point x="775" y="1" type="line"/>
      <point x="626" y="-148" type="line"/>
      <point x="-127" y="-148" type="line"/>
      <point x="-127" y="763" type="line"/>
      <point x="22" y="912" type="line"/>
      <point x="328" y="912" type="line"/>
      <point x="328" y="1206" type="line"/>
      <point x="-122" y="1206" type="line"/>
      <point x="-122" y="1449" type="line"/>
      <point x="27" y="1598" type="line"/>
      <point x="776" y="1598" type="line"/>
      <point x="776" y="669" type="line"/>
      <point x="627" y="520" type="line"/>
    </contour>
  </outline>
</glyph>
